<svg width="40" height="39" viewBox="0 0 40 39" fill="none" xmlns="http://www.w3.org/2000/svg">
<path d="M35.0204 39H3.89116C1.76871 39 0 37.2313 0 35.1089V6.54423C0 4.42178 1.41497 2.65308 3.27211 2.65308H5.21769V5.2177H3.27211C3.0068 5.2177 2.65306 5.74831 2.65306 6.54423V35.1089C2.65306 35.8163 3.27211 36.4354 3.97959 36.4354H35.1088C35.8163 36.4354 36.4354 35.8163 36.4354 35.1089V6.54423C36.4354 5.74831 35.9932 5.2177 35.8163 5.2177H33.8707V2.65308H35.8163C37.585 2.65308 39.0884 4.42178 39.0884 6.54423V35.1089C38.9116 37.2313 37.1429 39 35.0204 39Z" fill="#F37943"/>
<path d="M9.10867 7.87075C8.40119 7.87075 7.78214 7.2517 7.78214 6.54422V1.32653C7.78214 0.619048 8.40119 0 9.10867 0C9.81615 0 10.4352 0.619048 10.4352 1.32653V6.54422C10.3468 7.2517 9.81615 7.87075 9.10867 7.87075ZM29.8025 7.87075C29.0951 7.87075 28.476 7.2517 28.476 6.54422V1.32653C28.476 0.619048 29.0951 0 29.8025 0C30.51 0 31.1291 0.619048 31.1291 1.32653V6.54422C31.1291 7.2517 30.51 7.87075 29.8025 7.87075ZM12.9998 2.65306H25.9114V5.30612H12.9998V2.65306ZM2.56445 10.4354H36.3468V13.0884H2.56445V10.4354ZM31.1291 15.6531H33.6937V18.2177H31.1291V15.6531ZM25.9114 15.6531H28.5645V18.2177H25.9114V15.6531ZM20.7821 15.6531H23.3468V18.2177H20.7821V15.6531ZM15.5645 15.6531H18.1291V18.2177H15.5645V15.6531ZM10.3468 15.6531H12.9998V18.2177H10.3468V15.6531ZM31.1291 20.8707H33.6937V23.4354H31.1291V20.8707ZM25.9114 20.8707H28.5645V23.4354H25.9114V20.8707ZM20.7821 20.8707H23.3468V23.4354H20.7821V20.8707ZM15.5645 20.8707H18.1291V23.4354H15.5645V20.8707ZM10.3468 20.8707H12.9998V23.4354H10.3468V20.8707ZM5.21751 20.8707H7.78214V23.4354H5.21751V20.8707ZM31.1291 26H33.6937V28.6531H31.1291V26ZM25.9114 26H28.5645V28.6531H25.9114V26ZM20.7821 26H23.3468V28.6531H20.7821V26ZM15.5645 26H18.1291V28.6531H15.5645V26ZM10.3468 26H12.9998V28.6531H10.3468V26ZM5.21751 26H7.78214V28.6531H5.21751V26ZM25.9114 31.2177H28.5645V33.7823H25.9114V31.2177ZM20.7821 31.2177H23.3468V33.7823H20.7821V31.2177ZM15.5645 31.2177H18.1291V33.7823H15.5645V31.2177ZM10.3468 31.2177H12.9998V33.7823H10.3468V31.2177ZM5.21751 31.2177H7.78214V33.7823H5.21751V31.2177Z" fill="#F37943"/>
</svg>
