<svg width="36" height="36" viewBox="0 0 36 36" fill="none" xmlns="http://www.w3.org/2000/svg">
<path fill-rule="evenodd" clip-rule="evenodd" d="M12.207 25.3787L5.29267 32.2928L3.87842 30.8786L10.7928 23.9644L12.207 25.3787Z" fill="#F37943"/>
<path d="M-0.000244141 33.1715L6.92636 26.2449L9.49976 26.0648L9.99976 26.5648L9.71196 29.1162L2.82819 35.9999L-0.000244141 33.1715Z" fill="#F37943"/>
<path fill-rule="evenodd" clip-rule="evenodd" d="M20.9998 28C13.8201 28 7.99976 22.1797 7.99976 15C7.99976 7.8203 13.8201 2 20.9998 2C28.1795 2 33.9998 7.8203 33.9998 15C33.9998 22.1797 28.1795 28 20.9998 28ZM20.9998 30C12.7155 30 5.99976 23.2843 5.99976 15C5.99976 6.7157 12.7155 0 20.9998 0C29.2841 0 35.9998 6.7157 35.9998 15C35.9998 23.2843 29.2841 30 20.9998 30Z" fill="#F37943"/>
</svg>
