<svg width="33" height="39" viewBox="0 0 33 39" fill="none" xmlns="http://www.w3.org/2000/svg">
<path d="M16.4539 11.9583L17.5826 14.3627L20.1067 14.7507L18.2803 16.6213L18.7114 19.2639L16.4539 18.0155L14.1965 19.2639L14.6275 16.6213L12.8011 14.7507L15.3252 14.3627L16.4539 11.9583Z" stroke="#00AADF" stroke-width="0.842104" stroke-linecap="round" stroke-linejoin="round"/>
<path d="M31.57 15.8636C31.57 27.4242 16.7064 37.3333 16.7064 37.3333C16.7064 37.3333 1.84274 27.4242 1.84274 15.8636C1.84274 11.9215 3.40873 8.14092 6.1962 5.35345C8.98366 2.56598 12.7643 1 16.7064 1C20.6484 1 24.4291 2.56598 27.2165 5.35345C30.004 8.14092 31.57 11.9215 31.57 15.8636Z" stroke="#00AADF" stroke-width="1.89473" stroke-linecap="round" stroke-linejoin="round"/>
<path d="M16.5789 22.9168C20.6137 22.9168 23.8845 19.8504 23.8845 16.0678C23.8845 12.2852 20.6137 9.21875 16.5789 9.21875C12.5441 9.21875 9.27325 12.2852 9.27325 16.0678C9.27325 19.8504 12.5441 22.9168 16.5789 22.9168Z" stroke="#00AADF" stroke-width="1.89473" stroke-linecap="round" stroke-linejoin="round"/>
</svg>
