<svg width="37" height="36" viewBox="0 0 37 36" fill="none" xmlns="http://www.w3.org/2000/svg">
<path d="M8.88716 23.4C8.64182 22.9866 8.23775 22.6849 7.76383 22.5614C7.28991 22.4378 6.78496 22.5025 6.36006 22.7412L3.15586 24.5412C2.73441 24.7816 2.4278 25.1744 2.30294 25.6339C2.17807 26.0935 2.24508 26.5824 2.48935 26.994C2.73362 27.4057 3.13531 27.7066 3.60677 27.8311C4.07823 27.9557 4.58117 27.8937 5.00586 27.6588L8.21006 25.8588C8.63495 25.6201 8.94499 25.2269 9.07197 24.7658C9.19895 24.3047 9.13247 23.8134 8.88716 23.4ZM3.15586 11.4588L6.36006 13.2588C6.57053 13.3789 6.80334 13.4572 7.04506 13.4894C7.28679 13.5215 7.53267 13.5069 7.76855 13.4462C8.00442 13.3855 8.22563 13.28 8.41944 13.1358C8.61325 12.9916 8.77583 12.8116 8.89782 12.606C9.01981 12.4004 9.0988 12.1734 9.13025 11.938C9.1617 11.7026 9.14498 11.4634 9.08105 11.2344C9.01713 11.0053 8.90726 10.7907 8.75778 10.6031C8.6083 10.4155 8.42215 10.2585 8.21006 10.1412L5.00586 8.3412C4.58117 8.10627 4.07823 8.04431 3.60677 8.16885C3.13531 8.29339 2.73362 8.59431 2.48935 9.00595C2.24508 9.41759 2.17807 9.90652 2.30294 10.3661C2.4278 10.8256 2.73441 11.2184 3.15586 11.4588ZM7.39976 18C7.39976 17.5226 7.20485 17.0648 6.8579 16.7272C6.51096 16.3896 6.04041 16.2 5.54976 16.2H1.84976C1.35911 16.2 0.888551 16.3896 0.541608 16.7272C0.194666 17.0648 -0.000244141 17.5226 -0.000244141 18C-0.000244141 18.4774 0.194666 18.9352 0.541608 19.2728C0.888551 19.6104 1.35911 19.8 1.84976 19.8H5.54976C6.04041 19.8 6.51096 19.6104 6.8579 19.2728C7.20485 18.9352 7.39976 18.4774 7.39976 18ZM28.1124 12.6C28.3577 13.0134 28.7618 13.3151 29.2357 13.4386C29.7096 13.5622 30.2146 13.4975 30.6395 13.2588L33.8437 11.4588C34.0558 11.3415 34.2419 11.1845 34.3914 10.9969C34.5409 10.8093 34.6507 10.5947 34.7147 10.3656C34.7786 10.1366 34.7953 9.89742 34.7639 9.66202C34.7324 9.42662 34.6534 9.19959 34.5314 8.99401C34.4094 8.78843 34.2468 8.60836 34.053 8.46416C33.8592 8.31997 33.638 8.2145 33.4021 8.15382C33.1663 8.09315 32.9204 8.07846 32.6787 8.11062C32.4369 8.14278 32.2041 8.22114 31.9937 8.3412L28.7895 10.1412C28.3646 10.3799 28.0545 10.7731 27.9275 11.2342C27.8006 11.6953 27.867 12.1866 28.1124 12.6ZM24.0498 8.6472C24.4747 8.88588 24.9796 8.95057 25.4535 8.82702C25.9275 8.70347 26.3315 8.40181 26.5769 7.9884L28.4269 4.8708C28.5502 4.66601 28.6308 4.4395 28.6638 4.2043C28.6969 3.96911 28.6818 3.72988 28.6194 3.50038C28.5571 3.27088 28.4487 3.05565 28.3005 2.86708C28.1523 2.67851 27.9672 2.52032 27.7559 2.40163C27.5446 2.28293 27.3113 2.20607 27.0693 2.17547C26.8274 2.14488 26.5816 2.16115 26.3462 2.22334C26.1107 2.28554 25.8902 2.39244 25.6974 2.53788C25.5046 2.68332 25.3432 2.86444 25.2227 3.0708L23.3727 6.1884C23.1273 6.60182 23.0609 7.09313 23.1878 7.55424C23.3148 8.01535 23.6249 8.4085 24.0498 8.6472ZM33.8437 24.5412L30.6395 22.7412C30.429 22.6211 30.1962 22.5428 29.9544 22.5106C29.7127 22.4785 29.4668 22.4931 29.231 22.5538C28.9951 22.6145 28.7739 22.72 28.5801 22.8642C28.3863 23.0084 28.2237 23.1884 28.1017 23.394C27.9797 23.5996 27.9007 23.8266 27.8693 24.062C27.8378 24.2974 27.8545 24.5366 27.9185 24.7656C27.9824 24.9947 28.0922 25.2093 28.2417 25.3969C28.3912 25.5845 28.5774 25.7415 28.7895 25.8588L31.9937 27.6588C32.4183 27.8937 32.9213 27.9557 33.3927 27.8311C33.8642 27.7066 34.2659 27.4057 34.5102 26.994C34.7544 26.5824 34.8214 26.0935 34.6966 25.6339C34.5717 25.1744 34.2651 24.7816 33.8437 24.5412ZM26.5769 28.0116C26.4563 27.8052 26.2949 27.6241 26.1021 27.4787C25.9093 27.3332 25.6888 27.2263 25.4533 27.1641C25.2179 27.1019 24.9721 27.0857 24.7302 27.1163C24.4882 27.1469 24.2549 27.2237 24.0436 27.3424C23.8323 27.4611 23.6472 27.6193 23.499 27.8079C23.3508 27.9964 23.2424 28.2117 23.1801 28.4412C23.1177 28.6707 23.1026 28.9099 23.1357 29.1451C23.1687 29.3803 23.2493 29.6068 23.3727 29.8116L25.2227 32.9292C25.3432 33.1356 25.5046 33.3167 25.6974 33.4621C25.8902 33.6076 26.1107 33.7145 26.3462 33.7767C26.5816 33.8389 26.8274 33.8551 27.0693 33.8245C27.3113 33.7939 27.5446 33.7171 27.7559 33.5984C27.9672 33.4797 28.1523 33.3215 28.3005 33.1329C28.4487 32.9444 28.5571 32.7291 28.6194 32.4996C28.6818 32.2701 28.6969 32.0309 28.6638 31.7957C28.6308 31.5605 28.5502 31.334 28.4269 31.1292L26.5769 28.0116ZM35.1498 16.2H31.4498C30.9591 16.2 30.4886 16.3896 30.1416 16.7272C29.7947 17.0648 29.5998 17.5226 29.5998 18C29.5998 18.4774 29.7947 18.9352 30.1416 19.2728C30.4886 19.6104 30.9591 19.8 31.4498 19.8H35.1498C35.6404 19.8 36.111 19.6104 36.4579 19.2728C36.8048 18.9352 36.9998 18.4774 36.9998 18C36.9998 17.5226 36.8048 17.0648 36.4579 16.7272C36.111 16.3896 35.6404 16.2 35.1498 16.2ZM18.4998 28.8C18.0091 28.8 17.5386 28.9896 17.1916 29.3272C16.8447 29.6648 16.6498 30.1226 16.6498 30.6V34.2C16.6498 34.6774 16.8447 35.1352 17.1916 35.4728C17.5386 35.8104 18.0091 36 18.4998 36C18.9904 36 19.461 35.8104 19.8079 35.4728C20.1548 35.1352 20.3498 34.6774 20.3498 34.2V30.6C20.3498 30.1226 20.1548 29.6648 19.8079 29.3272C19.461 28.9896 18.9904 28.8 18.4998 28.8ZM12.9498 27.3528C12.5248 27.1141 12.0199 27.0494 11.546 27.173C11.0721 27.2965 10.668 27.5982 10.4227 28.0116L8.57266 31.1292C8.3312 31.5424 8.26752 32.0318 8.39552 32.4905C8.52352 32.9492 8.8328 33.34 9.25587 33.5777C9.67894 33.8154 10.1815 33.8806 10.6538 33.7591C11.1261 33.6376 11.5298 33.3393 11.7769 32.9292L13.6269 29.8116C13.8722 29.3982 13.9387 28.9069 13.8117 28.4458C13.6847 27.9847 13.3747 27.5915 12.9498 27.3528ZM18.4998 0C18.0091 0 17.5386 0.189642 17.1916 0.527208C16.8447 0.864773 16.6498 1.32261 16.6498 1.8V5.4C16.6498 5.87739 16.8447 6.33523 17.1916 6.67279C17.5386 7.01036 18.0091 7.2 18.4998 7.2C18.9904 7.2 19.461 7.01036 19.8079 6.67279C20.1548 6.33523 20.3498 5.87739 20.3498 5.4V1.8C20.3498 1.32261 20.1548 0.864773 19.8079 0.527208C19.461 0.189642 18.9904 0 18.4998 0Z" fill="#F37943"/>
</svg>
