<svg width="270" height="262" viewBox="0 0 270 262" fill="none" xmlns="http://www.w3.org/2000/svg">
<mask id="mask0_1_54" style="mask-type:alpha" maskUnits="userSpaceOnUse" x="4" y="0" width="262" height="262">
<rect x="4.00003" y="-3.05176e-05" width="262" height="262" rx="24" fill="#6A5AE0"/>
</mask>
<g mask="url(#mask0_1_54)">
<path d="M297.209 189.368C297.208 232.126 280.086 273.133 249.61 303.368C219.133 333.603 177.799 350.589 134.699 350.59C132.476 350.59 130.295 350.548 128.072 350.465C116.201 349.984 104.418 348.226 92.9281 345.223C95.1509 344.099 97.3317 342.976 99.5124 341.77C99.5544 341.77 99.5963 341.728 99.6802 341.686L99.7221 341.645C102.029 340.397 104.293 339.148 106.516 337.859C107.061 337.526 107.607 337.235 108.152 336.943C110.249 335.695 112.346 334.447 114.401 333.116C115.008 332.789 115.596 332.428 116.162 332.034C117.756 331.077 119.349 330.037 120.901 328.997C121.991 328.289 123.124 327.54 124.172 326.833C125.766 325.751 127.317 324.67 128.869 323.546C129.918 322.839 130.882 322.132 131.889 321.341C133.231 320.426 134.531 319.427 135.831 318.429C137.005 317.597 138.138 316.723 139.27 315.808C140.864 314.601 142.415 313.353 143.967 312.021C144.638 311.522 145.309 310.981 145.98 310.399C147.657 309.026 149.293 307.611 150.929 306.155C151.809 305.406 152.69 304.657 153.571 303.825C154.535 302.993 155.458 302.161 156.381 301.287C158.142 299.706 159.862 298.042 161.581 296.378C161.811 296.191 162.022 295.982 162.21 295.754C163.888 294.173 165.523 292.508 167.117 290.844C168.249 289.762 169.298 288.639 170.304 287.516C171.52 286.309 172.653 285.061 173.785 283.813C174.456 283.105 175.085 282.398 175.672 281.691C177.182 280.027 178.65 278.321 180.118 276.615C180.873 275.741 181.627 274.826 182.34 273.911C183.431 272.662 184.479 271.414 185.444 270.125C186.45 268.918 187.415 267.67 188.338 266.422C189.218 265.34 190.057 264.217 190.854 263.135C191.944 261.72 192.993 260.306 193.999 258.849C195.006 257.393 196.096 255.937 197.103 254.439C197.602 253.786 198.064 253.105 198.487 252.401C199.912 250.32 201.296 248.198 202.638 246.076C204.358 243.455 205.994 240.793 207.545 238.088C208.258 236.923 208.929 235.758 209.6 234.593C215.039 225.078 219.885 215.24 224.111 205.136C224.74 203.722 225.327 202.307 225.872 200.851C226.543 199.312 227.13 197.731 227.718 196.15C228.221 194.86 228.724 193.528 229.185 192.197C229.731 190.741 230.234 189.243 230.737 187.787C232.582 182.461 234.26 177.094 235.728 171.644C236.105 170.271 236.483 168.939 236.818 167.567C237.07 166.693 237.279 165.861 237.489 164.987L238.496 160.743C239.838 154.96 240.97 149.135 241.935 143.227L242.564 139.233C242.648 138.609 242.731 138.026 242.815 137.402C243.067 135.821 243.277 134.24 243.444 132.659C243.738 130.288 244.032 127.916 244.241 125.545C244.325 124.921 244.367 124.297 244.409 123.672C244.577 122.05 244.703 120.386 244.828 118.763C244.954 117.14 245.038 115.435 245.122 113.77C245.206 112.605 245.248 111.44 245.29 110.234C245.457 106.406 245.541 102.578 245.541 98.7507C245.541 96.7952 245.541 94.8814 245.457 92.9675C245.457 91.969 245.457 91.012 245.415 90.0135C245.29 86.5602 245.122 83.1485 244.87 79.7369L244.87 79.6121C244.828 78.78 244.786 77.9478 244.703 77.1157C244.535 74.8274 244.325 72.5807 244.115 70.2924C244.117 70.2208 244.102 70.1497 244.073 70.0844C249.724 75.1898 255.007 80.6813 259.884 86.5186L260.01 86.6434C260.033 86.6659 260.048 86.695 260.052 86.7266C284.127 115.593 297.271 151.902 297.209 189.368Z" fill="#231F20"/>
<path d="M245.377 98.0071C245.399 147.777 231.873 196.627 206.229 239.387C180.586 282.147 143.779 317.227 99.7041 340.914C99.6497 340.977 99.5759 341.021 99.4942 341.038L99.4528 341.08C97.2742 342.245 95.0956 343.368 92.917 344.492C79.2441 340.913 66.1126 335.54 53.8697 328.514C45.0129 323.448 36.6529 317.57 28.8996 310.956C30.366 309.416 31.7904 307.877 33.2149 306.296L33.2564 306.254C33.2564 306.213 33.2987 306.171 33.3406 306.129L33.3821 306.129C79.2278 255.527 104.546 189.836 104.438 121.765C104.445 92.4425 99.7787 63.3031 90.6122 35.4291L90.5708 35.4291C90.5708 35.3458 90.5289 35.2626 90.5289 35.1794L90.4865 35.1794C90.4627 35.1125 90.4484 35.0423 90.4451 34.9713C89.6072 32.4332 88.7273 29.8952 87.8056 27.3988L134.646 27.3988C175.062 27.3432 214.037 42.3037 243.91 69.3393C244.245 72.5015 244.497 75.6637 244.706 78.8675C245.167 85.1919 245.377 91.5579 245.377 98.0071Z" fill="#006838"/>
<path d="M104.464 121.383C104.464 124.171 104.422 126.959 104.339 129.705C104.298 131.494 104.214 133.241 104.131 135.03C103.799 142.187 103.175 149.302 102.261 156.375C102.053 158.206 101.803 159.995 101.513 161.784C101.222 163.989 100.847 166.153 100.473 168.358C100.141 170.438 99.7667 172.477 99.351 174.557C99.2678 175.057 99.1431 175.556 99.06 176.055C98.7274 177.761 98.3533 179.509 97.9792 181.215C96.0268 190.082 93.6266 198.845 90.7879 207.469C90.2476 209.175 89.6656 210.839 89.0836 212.462C89.0329 212.662 88.9635 212.857 88.8758 213.044C88.2939 214.75 87.7119 216.373 87.0884 218.037C86.9221 218.536 86.7143 219.077 86.5064 219.618C85.8413 221.407 85.1347 223.155 84.428 224.902C83.6382 226.9 82.8069 228.897 81.9339 230.852C81.061 232.891 80.1465 234.93 79.232 236.969C78.3591 238.841 77.4446 240.713 76.5716 242.544C75.6156 244.499 74.6595 246.413 73.6619 248.286C72.6642 250.158 71.6666 252.072 70.6274 253.944C69.5882 255.817 68.549 257.689 67.5098 259.52C66.4706 261.351 65.3483 263.223 64.2259 265.054C63.1036 266.884 61.9812 268.673 60.8173 270.463C58.5311 274.041 56.1617 277.577 53.7092 281.031C51.2567 284.484 48.6794 287.896 46.1022 291.266C42.1948 296.217 38.149 301.044 33.9643 305.746L33.9228 305.746C33.8812 305.787 33.8812 305.787 33.8812 305.829C33.8812 305.84 33.877 305.85 33.8691 305.858C33.8612 305.866 33.8508 305.87 33.8396 305.87C32.4263 307.451 30.9714 309.033 29.5165 310.572C22.9671 304.938 16.8786 298.788 11.3098 292.182C11.2676 292.103 11.2112 292.032 11.1435 291.974C-13.3022 262.954 -26.6889 226.205 -26.6419 188.246L-26.6419 27.0176L87.9613 27.0176C88.8758 29.514 89.7487 32.0105 90.5385 34.5485L90.5801 34.59C90.5838 34.661 90.598 34.7312 90.6217 34.7982L90.6632 34.7982L90.6632 34.9229C90.6607 34.9455 90.6628 34.9684 90.6699 34.99C90.6774 35.0116 90.6894 35.0313 90.7048 35.0478L90.7464 35.0478C90.7834 35.2065 90.8391 35.3601 90.9126 35.5054L91.4115 37.1281C92.8248 41.5385 94.1134 45.9905 95.2773 50.5257C96.1087 53.5631 96.8569 56.6835 97.5635 59.8041C98.8521 65.4627 99.9745 71.2463 100.931 77.1129C101.138 78.5275 101.388 79.9006 101.554 81.3152C102.053 84.7687 102.51 88.2221 102.884 91.7171C103.051 93.0069 103.175 94.3384 103.258 95.6282C103.508 98.0414 103.674 100.496 103.84 102.909C104.256 109.026 104.464 115.184 104.464 121.383Z" fill="#8FB73E"/>
</g>
<g filter="url(#filter0_d_1_54)">
<rect x="4.00003" y="-3.05176e-05" width="262" height="235.8" rx="30" fill="white"/>
</g>
<path d="M181.842 107.578L116.816 107.544C88.8605 107.544 69.2127 114.428 59.4911 138.217L37.5769 192.67C44.0864 176.737 58.1193 161.809 93.1803 161.528H158.207C186.162 161.528 205.81 154.678 215.531 130.881L235.375 77.9868C228.866 93.9197 214.1 107.569 181.851 107.569L181.842 107.578Z" fill="url(#paint0_linear_1_54)"/>
<path d="M192.152 25.8H148.835C120.88 25.8 101.232 32.5821 91.5103 56.3793L65.8983 124.107C76.7702 109.554 94.0323 104.979 116.798 104.979H126.75L136.276 79.1199C138.022 74.3741 143.595 70.4803 148.656 70.4803H173.424C178.485 70.4803 181.195 74.3656 179.448 79.1199L169.922 105.005H181.714H181.834C182.336 105.005 182.839 105.005 183.333 104.996C183.47 104.996 183.597 104.996 183.734 104.996C184.092 104.996 184.45 104.987 184.799 104.97C184.978 104.97 185.157 104.962 185.336 104.953C185.642 104.945 185.941 104.936 186.239 104.919C186.443 104.919 186.639 104.902 186.844 104.894C187.116 104.885 187.389 104.868 187.662 104.851C187.883 104.843 188.096 104.826 188.309 104.809C188.556 104.792 188.812 104.783 189.059 104.766C189.289 104.749 189.511 104.732 189.741 104.715C189.971 104.698 190.201 104.681 190.431 104.664C190.661 104.647 190.891 104.621 191.112 104.604C191.334 104.587 191.555 104.561 191.777 104.544C192.007 104.519 192.237 104.493 192.467 104.468C192.68 104.442 192.885 104.425 193.098 104.4C193.336 104.374 193.566 104.34 193.805 104.314C194.001 104.289 194.205 104.263 194.401 104.238C194.64 104.204 194.878 104.17 195.108 104.135C195.296 104.11 195.483 104.084 195.671 104.059C195.909 104.025 196.148 103.982 196.386 103.948C196.565 103.922 196.744 103.897 196.923 103.863C197.17 103.82 197.409 103.778 197.647 103.735C197.818 103.709 197.988 103.675 198.15 103.65C198.397 103.607 198.644 103.556 198.883 103.513C199.036 103.479 199.198 103.454 199.351 103.428C199.599 103.377 199.846 103.326 200.093 103.275C200.238 103.241 200.382 103.215 200.527 103.181C200.783 103.13 201.03 103.07 201.277 103.011C201.413 102.977 201.55 102.951 201.686 102.917C201.942 102.857 202.189 102.798 202.436 102.738C202.564 102.704 202.691 102.678 202.819 102.644C203.075 102.576 203.33 102.517 203.578 102.448C203.697 102.414 203.816 102.389 203.935 102.355C204.191 102.287 204.447 102.21 204.702 102.142C204.813 102.108 204.915 102.082 205.026 102.048C205.282 101.971 205.537 101.895 205.793 101.818C205.895 101.784 205.997 101.758 206.091 101.724C206.355 101.639 206.611 101.562 206.866 101.477C206.96 101.452 207.045 101.417 207.139 101.392C207.403 101.307 207.659 101.213 207.923 101.128C208.008 101.102 208.085 101.068 208.17 101.043C208.434 100.949 208.698 100.855 208.954 100.753C209.031 100.727 209.099 100.702 209.175 100.676C209.439 100.574 209.704 100.472 209.968 100.369C210.036 100.344 210.096 100.318 210.164 100.293C210.436 100.182 210.7 100.08 210.965 99.969C211.016 99.9435 211.075 99.9264 211.135 99.9009C211.408 99.7901 211.672 99.6708 211.936 99.5516C211.987 99.5345 212.03 99.5089 212.081 99.4919C212.353 99.3726 212.618 99.2448 212.89 99.1255C212.924 99.1085 212.967 99.0915 213.001 99.0744C213.274 98.9466 213.546 98.8188 213.81 98.6825C213.844 98.6654 213.87 98.6569 213.904 98.6399C214.177 98.5036 214.449 98.3672 214.722 98.2309C214.748 98.2224 214.765 98.2054 214.79 98.1968C215.063 98.052 215.336 97.9071 215.608 97.7623C215.625 97.7623 215.642 97.7453 215.659 97.7367C215.932 97.5834 216.205 97.43 216.477 97.2766C216.477 97.2766 216.494 97.2681 216.503 97.2596C216.775 97.0977 217.057 96.9443 217.321 96.7825C226.318 91.3806 231.882 83.8231 235.264 75.6522C235.333 75.4051 235.358 75.2773 235.35 75.2687C245.565 47.2967 228.056 25.8 192.152 25.8Z" fill="url(#paint1_linear_1_54)"/>
<path d="M50.1102 164.084H50.0505L44.8873 177.044L50.1102 164.084Z" fill="url(#paint2_linear_1_54)"/>
<path d="M93.1717 164.084C59.7551 164.348 45.4411 177.93 38.5396 193.002L31.766 210H88.9456L107.23 164.084H93.1717Z" fill="url(#paint3_linear_1_54)"/>
<defs>
<filter id="filter0_d_1_54" x="3.05176e-05" y="-3.05176e-05" width="270" height="243.8" filterUnits="userSpaceOnUse" color-interpolation-filters="sRGB">
<feFlood flood-opacity="0" result="BackgroundImageFix"/>
<feColorMatrix in="SourceAlpha" type="matrix" values="0 0 0 0 0 0 0 0 0 0 0 0 0 0 0 0 0 0 127 0" result="hardAlpha"/>
<feOffset dy="4"/>
<feGaussianBlur stdDeviation="2"/>
<feComposite in2="hardAlpha" operator="out"/>
<feColorMatrix type="matrix" values="0 0 0 0 0 0 0 0 0 0 0 0 0 0 0 0 0 0 0.25 0"/>
<feBlend mode="normal" in2="BackgroundImageFix" result="effect1_dropShadow_1_54"/>
<feBlend mode="normal" in="SourceGraphic" in2="effect1_dropShadow_1_54" result="shape"/>
</filter>
<linearGradient id="paint0_linear_1_54" x1="37.5684" y1="135.337" x2="235.367" y2="135.337" gradientUnits="userSpaceOnUse">
<stop stop-color="#8FB73E"/>
<stop offset="1" stop-color="#006838"/>
</linearGradient>
<linearGradient id="paint1_linear_1_54" x1="65.9068" y1="74.9535" x2="238.247" y2="74.9535" gradientUnits="userSpaceOnUse">
<stop stop-color="#006838"/>
<stop offset="0.99" stop-color="#8FB73E"/>
</linearGradient>
<linearGradient id="paint2_linear_1_54" x1="44.8873" y1="170.568" x2="50.1102" y2="170.568" gradientUnits="userSpaceOnUse">
<stop stop-color="#006838"/>
<stop offset="0.99" stop-color="#8FB73E"/>
</linearGradient>
<linearGradient id="paint3_linear_1_54" x1="55.8529" y1="162.747" x2="79.0365" y2="204.027" gradientUnits="userSpaceOnUse">
<stop stop-color="#006838"/>
<stop offset="0.99" stop-color="#8FB73E"/>
</linearGradient>
</defs>
</svg>
