<svg width="37" height="37" viewBox="0 0 37 37" fill="none" xmlns="http://www.w3.org/2000/svg">
<path d="M18.5 0C14.8411 0 11.2643 1.08501 8.22199 3.11781C5.17968 5.15062 2.80849 8.03992 1.40827 11.4204C0.00804634 14.8008 -0.358315 18.5205 0.355511 22.1092C1.06934 25.6978 2.83129 28.9942 5.41856 31.5815C8.00583 34.1687 11.3022 35.9307 14.8909 36.6445C18.4795 37.3583 22.1992 36.992 25.5797 35.5918C28.9601 34.1915 31.8494 31.8204 33.8822 28.778C35.915 25.7357 37 22.159 37 18.5C36.9942 13.5953 35.0433 8.89308 31.5751 5.42491C28.1069 1.95675 23.4048 0.00578625 18.5 0ZM26.8233 24.4469C26.984 24.602 27.1121 24.7876 27.2002 24.9928C27.2884 25.198 27.3348 25.4187 27.3367 25.642C27.3387 25.8653 27.2961 26.0868 27.2115 26.2935C27.127 26.5002 27.0021 26.6879 26.8442 26.8458C26.6863 27.0038 26.4985 27.1286 26.2918 27.2132C26.0851 27.2978 25.8637 27.3403 25.6404 27.3384C25.417 27.3364 25.1964 27.29 24.9912 27.2019C24.786 27.1138 24.6004 26.9856 24.4453 26.825L18.5 20.8781L12.5531 26.825C12.2359 27.1314 11.8111 27.3009 11.3701 27.297C10.9292 27.2932 10.5073 27.1163 10.1955 26.8045C9.8837 26.4927 9.70683 26.0709 9.70299 25.6299C9.69916 25.1889 9.86868 24.7641 10.175 24.4469L16.1219 18.5L10.175 12.5531C10.0144 12.3979 9.88628 12.2124 9.79814 12.0072C9.71 11.802 9.6636 11.5813 9.66166 11.358C9.65972 11.1347 9.70227 10.9132 9.78684 10.7065C9.8714 10.4998 9.99628 10.3121 10.1542 10.1542C10.3121 9.99624 10.4999 9.87136 10.7066 9.7868C10.9133 9.70223 11.1347 9.65968 11.358 9.66162C11.5813 9.66356 11.802 9.70996 12.0072 9.7981C12.2124 9.88624 12.398 10.0144 12.5531 10.175L18.5 16.1219L24.4453 10.175C24.6004 10.0144 24.786 9.88624 24.9912 9.7981C25.1964 9.70996 25.417 9.66356 25.6404 9.66162C25.8637 9.65968 26.0851 9.70223 26.2918 9.7868C26.4985 9.87136 26.6863 9.99624 26.8442 10.1542C27.0021 10.3121 27.127 10.4998 27.2115 10.7065C27.2961 10.9132 27.3387 11.1347 27.3367 11.358C27.3348 11.5813 27.2884 11.802 27.2002 12.0072C27.1121 12.2124 26.984 12.3979 26.8233 12.5531L20.8781 18.5L26.8233 24.4469Z" fill="#012C52" fill-opacity="0.4"/>
</svg>
